<svg version="1.1" viewBox="0.0 0.0 540.0944881889764 540.0" fill="none" stroke="none" stroke-linecap="square" stroke-miterlimit="10" xmlns:xlink="http://www.w3.org/1999/xlink" xmlns="http://www.w3.org/2000/svg"><clipPath id="g109793198c4_0_0.0"><path d="m0 0l540.0945 0l0 540.0l-540.0945 0l0 -540.0z" clip-rule="nonzero"/></clipPath><g clip-path="url(#g109793198c4_0_0.0)"><path fill="#ffffff" d="m0 0l540.0945 0l0 540.0l-540.0945 0z" fill-rule="evenodd"/><path fill="#b6d7a8" d="m22.769863 91.35205c65.51181 -93.267715 131.02362 93.267715 196.53543 0c65.51181 -93.267715 131.02362 93.267715 196.53543 0l98.26773 391.72443c-65.51181 93.2677 -131.02362 -93.26773 -196.53546 0c-65.511795 93.2677 -131.0236 -93.26773 -196.53542 0z" fill-rule="evenodd"/><path stroke="#595959" stroke-width="1.0" stroke-linejoin="round" stroke-linecap="butt" d="m22.769863 91.35205c65.51181 -93.267715 131.02362 93.267715 196.53543 0c65.51181 -93.267715 131.02362 93.267715 196.53543 0l98.26773 391.72443c-65.51181 93.2677 -131.02362 -93.26773 -196.53546 0c-65.511795 93.2677 -131.0236 -93.26773 -196.53542 0z" fill-rule="evenodd"/><path fill="#000000" fill-opacity="0.0" d="m140.76637 19.713661l41.984253 0l0 60.25197l-41.984253 0z" fill-rule="evenodd"/><path fill="#000000" d="m155.8445 52.954285l0 3.65625q0 3.359375 -2.3125 3.359375q-0.640625 0 -1.203125 -0.515625q-0.5625 -0.5 -0.5625 -1.546875q0 -0.65625 0.265625 -1.328125q0.265625 -0.671875 0.859375 -1.4375q0.609375 -0.75 0.953125 -1.125q0.34375 -0.375 1.09375 -1.140625l0.03125 -1.5q0 -5.859375 -2.4375 -5.859375q-0.640625 0 -1.046875 0.484375q-0.40625 0.46875 -0.578125 1.171875l-0.875 0q0.15625 -0.5625 0.28125 -1.21875q0.125 -0.65625 0.390625 -1.359375q0.265625 -0.703125 0.578125 -1.265625q0.328125 -0.578125 0.875 -0.953125q0.5625 -0.375 1.265625 -0.375q0.765625 0 1.296875 0.578125q0.53125 0.5625 0.75 1.5q0.234375 0.9375 0.3125 1.671875q0.09375 0.71875 0.09375 1.46875l0 4.859375l0.046875 0q0.453125 -0.4375 1.9375 -1.515625q1.5 -1.09375 2.03125 -1.796875q0.75 -0.953125 0.75 -1.9375q0 -0.296875 -0.40625 -1.28125q-0.34375 -0.890625 -0.34375 -1.390625q0 -2.15625 1.734375 -2.15625q0.75 0 1.3125 0.546875q0.578125 0.546875 0.578125 1.5625q0 1.640625 -0.96875 3.125q-0.953125 1.484375 -2.09375 2.34375q-1.140625 0.84375 -2.625 1.859375q-1.484375 1.015625 -1.984375 1.515625z" fill-rule="nonzero"/><path fill="#000000" fill-opacity="0.0" d="m295.0983 138.90074l37.795258 0l0 51.716522l-37.795258 0z" fill-rule="evenodd"/><path stroke="#000000" stroke-width="1.0" stroke-linejoin="round" stroke-linecap="butt" d="m295.0983 138.90074l37.795258 0l0 51.716522l-37.795258 0z" fill-rule="evenodd"/><path fill="#000000" d="m320.92923 161.53198l-4.640625 8.0q0.265625 1.78125 1.3125 1.78125q0.5 0 0.96875 -0.375q0.46875 -0.390625 0.671875 -0.90625l0.78125 0q-1.359375 3.8125 -3.125 3.8125q-1.375 0 -1.375 -2.5q0 -0.421875 0.046875 -0.828125l-0.046875 0q-2.59375 3.328125 -5.125 3.328125q-2.046875 0 -3.1875 -1.171875q-1.125 -1.171875 -1.125 -3.203125q0 -1.890625 0.96875 -3.796875q0.96875 -1.921875 2.6875 -3.203125q1.71875 -1.28125 3.640625 -1.28125q2.34375 0 2.34375 2.84375q0 0.265625 -0.03125 0.59375l0.0625 0l1.515625 -3.09375l3.65625 0zm-6.046875 2.75q0 -2.328125 -1.390625 -2.328125q-1.703125 0 -2.96875 2.75q-1.265625 2.75 -1.265625 5.921875q0 2.453125 1.296875 2.453125q0.96875 0 1.828125 -1.078125q0.875 -1.078125 1.390625 -2.578125q0.515625 -1.5 0.8125 -2.890625q0.296875 -1.40625 0.296875 -2.25z" fill-rule="nonzero"/><path fill="#000000" fill-opacity="0.0" d="m108.01907 268.34912l37.795273 0l0 51.716553l-37.795273 0z" fill-rule="evenodd"/><path stroke="#000000" stroke-width="1.0" stroke-linejoin="round" stroke-linecap="butt" d="m108.01907 268.34912l37.795273 0l0 51.716553l-37.795273 0z" fill-rule="evenodd"/><path fill="#000000" d="m133.85002 290.98038l-4.640625 8.0q0.265625 1.78125 1.3125 1.78125q0.5 0 0.96875 -0.375q0.46875 -0.390625 0.671875 -0.90625l0.78125 0q-1.359375 3.8125 -3.125 3.8125q-1.375 0 -1.375 -2.5q0 -0.421875 0.046875 -0.828125l-0.046875 0q-2.59375 3.328125 -5.125 3.328125q-2.046875 0 -3.1875 -1.171875q-1.125 -1.171875 -1.125 -3.203125q0 -1.890625 0.96875 -3.796875q0.96875 -1.921875 2.6875 -3.203125q1.71875 -1.28125 3.640625 -1.28125q2.34375 0 2.34375 2.84375q0 0.265625 -0.03125 0.59375l0.0625 0l1.515625 -3.09375l3.65625 0zm-6.046875 2.75q0 -2.328125 -1.390625 -2.328125q-1.703125 0 -2.96875 2.75q-1.265625 2.75 -1.265625 5.921875q0 2.453125 1.296875 2.453125q0.96875 0 1.828125 -1.078125q0.875 -1.078125 1.390625 -2.578125q0.515625 -1.5 0.8125 -2.890625q0.296875 -1.40625 0.296875 -2.25z" fill-rule="nonzero"/><path fill="#000000" fill-opacity="0.0" d="m337.13953 374.50992l37.795258 0l0 51.716553l-37.795258 0z" fill-rule="evenodd"/><path stroke="#000000" stroke-width="1.0" stroke-linejoin="round" stroke-linecap="butt" d="m337.13953 374.50992l37.795258 0l0 51.716553l-37.795258 0z" fill-rule="evenodd"/><path fill="#000000" d="m362.97046 397.14117l-4.640625 8.0q0.265625 1.78125 1.3125 1.78125q0.5 0 0.96875 -0.375q0.46875 -0.390625 0.671875 -0.90625l0.78125 0q-1.359375 3.8125 -3.125 3.8125q-1.375 0 -1.375 -2.5q0 -0.421875 0.046875 -0.828125l-0.046875 0q-2.59375 3.328125 -5.125 3.328125q-2.046875 0 -3.1875 -1.171875q-1.125 -1.171875 -1.125 -3.203125q0 -1.890625 0.96875 -3.796875q0.96875 -1.921875 2.6875 -3.203125q1.71875 -1.28125 3.640625 -1.28125q2.34375 0 2.34375 2.84375q0 0.265625 -0.03125 0.59375l0.0625 0l1.515625 -3.09375l3.65625 0zm-6.046875 2.75q0 -2.328125 -1.390625 -2.328125q-1.703125 0 -2.96875 2.75q-1.265625 2.75 -1.265625 5.921875q0 2.453125 1.296875 2.453125q0.96875 0 1.828125 -1.078125q0.875 -1.078125 1.390625 -2.578125q0.515625 -1.5 0.8125 -2.890625q0.296875 -1.40625 0.296875 -2.25z" fill-rule="nonzero"/><path fill="#000000" fill-opacity="0.0" d="m126.91671 268.34912l168.18896 -103.590546" fill-rule="evenodd"/><path stroke="#595959" stroke-width="2.0" stroke-linejoin="round" stroke-linecap="butt" d="m137.13417 262.05603l147.75404 -91.00433" fill-rule="evenodd"/><path fill="#595959" stroke="#595959" stroke-width="2.0" stroke-linecap="butt" d="m135.40175 259.24326l-5.9955444 7.572571l9.460403 -1.947052z" fill-rule="evenodd"/><path fill="#595959" stroke="#595959" stroke-width="2.0" stroke-linecap="butt" d="m286.62064 173.86446l5.9955444 -7.5725555l-9.460388 1.947052z" fill-rule="evenodd"/><path fill="#000000" fill-opacity="0.0" d="m356.03717 374.50992l-42.04724 -183.9055" fill-rule="evenodd"/><path stroke="#595959" stroke-width="2.0" stroke-linejoin="round" stroke-linecap="butt" d="m353.36252 362.8118l-36.697998 -160.50925" fill-rule="evenodd"/><path fill="#595959" stroke="#595959" stroke-width="2.0" stroke-linecap="butt" d="m350.14218 363.54807l5.2433167 8.111603l1.1974182 -9.5841675z" fill-rule="evenodd"/><path fill="#595959" stroke="#595959" stroke-width="2.0" stroke-linecap="butt" d="m319.8849 201.56627l-5.2433167 -8.111603l-1.1974182 9.584183z" fill-rule="evenodd"/><path fill="#000000" fill-opacity="0.0" d="m145.81435 294.2074l191.33858 106.17322" fill-rule="evenodd"/><path stroke="#595959" stroke-width="2.0" stroke-linejoin="round" stroke-linecap="butt" d="m156.30717 300.02985l170.35292 94.52835" fill-rule="evenodd"/><path fill="#595959" stroke="#595959" stroke-width="2.0" stroke-linecap="butt" d="m157.91002 297.1413l-9.539093 -1.5152588l6.3333893 7.2923584z" fill-rule="evenodd"/><path fill="#595959" stroke="#595959" stroke-width="2.0" stroke-linecap="butt" d="m325.05725 397.44675l9.539093 1.5152283l-6.333374 -7.2923584z" fill-rule="evenodd"/><path fill="#000000" fill-opacity="0.0" d="m190.78778 164.52554l41.984253 0l0 60.25197l-41.984253 0z" fill-rule="evenodd"/><path fill="#000000" d="m209.58917 185.76617l-3.515625 17.03125q-0.1875 0.90625 -0.609375 1.4375q-0.421875 0.546875 -1.359375 0.546875q-0.53125 0 -1.015625 -0.328125q-0.484375 -0.3125 -0.484375 -1.109375q0 -0.59375 0.359375 -1.765625l3.890625 -13.015625q0.546875 -1.90625 1.125 -3.234375q0.59375 -1.34375 1.46875 -2.5q0.890625 -1.15625 2.15625 -1.734375q1.265625 -0.578125 2.953125 -0.578125q1.640625 0 2.953125 0.75q1.3125 0.75 1.3125 2.234375q0 3.703125 -5.3125 4.859375l0 0.046875q3.859375 0.53125 3.859375 3.921875q0 2.609375 -2.015625 4.875q-2.0 2.265625 -4.609375 2.265625q-1.34375 0 -2.28125 -0.59375q-0.921875 -0.609375 -0.921875 -1.96875l1.140625 0q0 0.71875 0.421875 1.046875q0.4375 0.3125 0.96875 0.3125q0.671875 0 1.21875 -0.3125q0.5625 -0.328125 0.875 -0.671875q0.328125 -0.34375 0.640625 -1.09375q0.328125 -0.765625 0.453125 -1.125q0.125 -0.359375 0.359375 -1.21875q0.40625 -1.375 0.40625 -2.6875q0 -0.78125 -0.28125 -1.46875q-0.265625 -0.6875 -0.90625 -0.6875q-0.15625 0 -0.609375 0.234375q-0.453125 0.21875 -0.796875 0.21875q-0.3125 0 -0.65625 -0.21875q-0.328125 -0.234375 -0.328125 -0.71875q0 -0.484375 0.296875 -0.75q0.3125 -0.265625 0.6875 -0.265625q0.265625 0 0.78125 0.234375q0.53125 0.21875 0.734375 0.21875q1.171875 0 1.9375 -1.359375q0.765625 -1.359375 0.765625 -2.921875q0 -2.40625 -1.84375 -2.40625q-1.421875 0 -2.578125 1.0625q-1.15625 1.046875 -1.640625 3.4375z" fill-rule="nonzero"/><path fill="#000000" fill-opacity="0.0" d="m210.75687 336.64154l41.984253 0l0 60.251984l-41.984253 0z" fill-rule="evenodd"/><path fill="#000000" d="m229.55827 357.88217l-3.515625 17.03125q-0.1875 0.90625 -0.609375 1.4375q-0.421875 0.546875 -1.359375 0.546875q-0.53125 0 -1.015625 -0.328125q-0.484375 -0.3125 -0.484375 -1.109375q0 -0.59375 0.359375 -1.765625l3.890625 -13.015625q0.546875 -1.90625 1.125 -3.234375q0.59375 -1.34375 1.46875 -2.5q0.890625 -1.15625 2.15625 -1.734375q1.265625 -0.578125 2.953125 -0.578125q1.640625 0 2.953125 0.75q1.3125 0.75 1.3125 2.234375q0 3.703125 -5.3125 4.859375l0 0.046875q3.859375 0.53125 3.859375 3.921875q0 2.609375 -2.015625 4.875q-2.0 2.265625 -4.609375 2.265625q-1.34375 0 -2.28125 -0.59375q-0.921875 -0.609375 -0.921875 -1.96875l1.140625 0q0 0.71875 0.421875 1.046875q0.4375 0.3125 0.96875 0.3125q0.671875 0 1.21875 -0.3125q0.5625 -0.328125 0.875 -0.671875q0.328125 -0.34375 0.640625 -1.09375q0.328125 -0.765625 0.453125 -1.125q0.125 -0.359375 0.359375 -1.21875q0.40625 -1.375 0.40625 -2.6875q0 -0.78125 -0.28125 -1.46875q-0.265625 -0.6875 -0.90625 -0.6875q-0.15625 0 -0.609375 0.234375q-0.453125 0.21875 -0.796875 0.21875q-0.3125 0 -0.65625 -0.21875q-0.328125 -0.234375 -0.328125 -0.71875q0 -0.484375 0.296875 -0.75q0.3125 -0.265625 0.6875 -0.265625q0.265625 0 0.78125 0.234375q0.53125 0.21875 0.734375 0.21875q1.171875 0 1.9375 -1.359375q0.765625 -1.359375 0.765625 -2.921875q0 -2.40625 -1.84375 -2.40625q-1.421875 0 -2.578125 1.0625q-1.15625 1.046875 -1.640625 3.4375z" fill-rule="nonzero"/><path fill="#000000" fill-opacity="0.0" d="m336.61472 244.84634l41.984253 0l0 60.251984l-41.984253 0z" fill-rule="evenodd"/><path fill="#000000" d="m355.4161 266.08698l-3.515625 17.03125q-0.1875 0.90625 -0.609375 1.4375q-0.421875 0.546875 -1.359375 0.546875q-0.53125 0 -1.015625 -0.328125q-0.484375 -0.3125 -0.484375 -1.109375q0 -0.59375 0.359375 -1.765625l3.890625 -13.015625q0.546875 -1.90625 1.125 -3.234375q0.59375 -1.34375 1.46875 -2.5q0.890625 -1.15625 2.15625 -1.734375q1.265625 -0.578125 2.953125 -0.578125q1.640625 0 2.953125 0.75q1.3125 0.75 1.3125 2.234375q0 3.703125 -5.3125 4.859375l0 0.046875q3.859375 0.53125 3.859375 3.921875q0 2.609375 -2.015625 4.875q-2.0 2.265625 -4.609375 2.265625q-1.34375 0 -2.28125 -0.59375q-0.921875 -0.609375 -0.921875 -1.96875l1.140625 0q0 0.71875 0.421875 1.046875q0.4375 0.3125 0.96875 0.3125q0.671875 0 1.21875 -0.3125q0.5625 -0.328125 0.875 -0.671875q0.328125 -0.34375 0.640625 -1.09375q0.328125 -0.765625 0.453125 -1.125q0.125 -0.359375 0.359375 -1.21875q0.40625 -1.375 0.40625 -2.6875q0 -0.78125 -0.28125 -1.46875q-0.265625 -0.6875 -0.90625 -0.6875q-0.15625 0 -0.609375 0.234375q-0.453125 0.21875 -0.796875 0.21875q-0.3125 0 -0.65625 -0.21875q-0.328125 -0.234375 -0.328125 -0.71875q0 -0.484375 0.296875 -0.75q0.3125 -0.265625 0.6875 -0.265625q0.265625 0 0.78125 0.234375q0.53125 0.21875 0.734375 0.21875q1.171875 0 1.9375 -1.359375q0.765625 -1.359375 0.765625 -2.921875q0 -2.40625 -1.84375 -2.40625q-1.421875 0 -2.578125 1.0625q-1.15625 1.046875 -1.640625 3.4375z" fill-rule="nonzero"/><path fill="#000000" fill-opacity="0.0" d="m182.75063 49.839645l58.04724 20.377953" fill-rule="evenodd"/><path stroke="#595959" stroke-width="2.0" stroke-linejoin="round" stroke-linecap="butt" d="m182.75061 49.839645l46.724686 16.403076" fill-rule="evenodd"/><path fill="#595959" stroke="#595959" stroke-width="2.0" stroke-linecap="butt" d="m228.38106 69.359695l9.658051 -0.110580444l-7.469574 -6.1233673z" fill-rule="evenodd"/></g></svg>